<?xml version="1.0" encoding="UTF-8"?>
<!DOCTYPE svg PUBLIC "-//W3C//DTD SVG 1.1//EN" "http://www.w3.org/Graphics/SVG/1.1/DTD/svg11.dtd">
<!-- Creator: CorelDRAW 2019 (64-Bit) -->
<svg xmlns="http://www.w3.org/2000/svg" xml:space="preserve" width="100px" height="100px" version="1.1" style="shape-rendering:geometricPrecision; text-rendering:geometricPrecision; image-rendering:optimizeQuality; fill-rule:evenodd; clip-rule:evenodd"
viewBox="0 0 100 100"
 xmlns:xlink="http://www.w3.org/1999/xlink">
 <defs>
  <style type="text/css">
   <![CDATA[
    .fil1 {fill:#F5AFA7}
    .fil4 {fill:#FDE64D}
    .fil2 {fill:#99C667}
    .fil0 {fill:#7086BB}
    .fil3 {fill:#445F89}
   ]]>
  </style>
 </defs>
 <g id="Слой_x0020_1">
  <metadata id="CorelCorpID_0Corel-Layer"/>
  <g id="_2674590757312">
   <path class="fil0" d="M88.23 81.49l7.25 0 -0.01 6.04 -7.25 0 0.01 -6.04zm-9.25 0l7.23 0 0.01 6.04 -7.24 0 0 -6.04zm-9.26 0l7.24 0 0 6.04 -7.24 0 0 -6.04zm-46.68 0l44.67 0 -0.01 6.04 -44.56 0 -0.1 -6.04zm-9.26 0l7.24 0 0.01 6.04 -7.25 0 0 -6.04zm-9.26 0l7.35 0 -0.1 6.04 -7.25 0 0 -6.04zm83.71 -8.05l7.26 0 -0.01 6.04 -7.25 0 0 -6.04zm-9.25 0l7.24 0 0 6.04 -7.24 0 0 -6.04zm-13.29 0l11.27 0 0.01 6.04 -11.25 0 -0.03 -6.04zm-9.26 0l7.25 0 0.01 6.04 -7.25 0 -0.01 -6.04zm-9.25 0l7.25 0 0 6.04 -7.22 0 -0.03 -6.04zm-9.26 0l7.28 0 -0.02 6.04 -7.25 0 -0.01 -6.04zm-9.25 0l7.24 0 0.01 6.04 -7.25 0 0 -6.04zm-9.26 0l7.25 0 0 6.04 -7.25 0 0 -6.04zm-14.89 0l12.88 0 0.01 6.04 -12.79 0 -0.1 -6.04zm83.71 -8.05l7.23 0 0.02 6.04 -7.24 0 -0.01 -6.04zm-9.66 -8.04l7.65 0 0 14.08 -13.88 0 -0.01 -6.03 6.25 0 -0.01 -8.05zm-15.7 8.04l7.26 0 0 6.04 -7.25 0 -0.01 -6.04zm-9.25 0l7.26 0 -0.01 6.04 -7.25 0 0 -6.04zm-9.26 0l7.27 0 -0.02 6.04 -7.24 0 -0.01 -6.04zm-9.25 0.01l7.24 0 0 6.03 -7.24 0 0 -6.03zm-9.26 0l7.24 0 0.01 6.03 -7.24 0 -0.01 -6.03zm-9.25 0l7.24 0 -0.2 6.03 -7.04 0 0 -6.03zm-11.98 -0.01l9.97 0 0.1 6.04 -10.17 0 0.1 -6.04zm83.61 -8.05l7.25 0 0 6.05 -7.25 0 0 -6.05zm-18.91 0l7.25 0 0 6.05 -7.26 0 0.01 -6.05zm-9.26 0l7.25 0 -0.01 6.05 -7.24 0 0 -6.05zm-9.25 0l7.24 0 0.01 6.05 -7.26 0 0.01 -6.05zm-9.29 0l7.28 0 0 6.05 -7.26 0 -0.02 -6.05zm-9.28 0l7.3 0 0.02 6.05 -7.27 0 -0.05 -6.05zm-9.2 0.01l7.24 0 0 6.03 -7.24 0 0 -6.03zm-9.26 -0.01l7.25 0 -0.06 6.05 -7.19 0 0 -6.05zm-9.46 0l7.25 0 0.2 0 0 6.05 -7.25 0 -0.2 -6.05zm80.69 -8.05l10.47 0 -0.02 6.05 -10.45 0 0 -6.05zm-8.05 0l6.04 0 0 6.05 -6.04 0 0 -6.05zm-8.02 0l6.02 0 -0.06 6.05 -5.99 0 0.03 -6.05zm-8.08 0l6.05 0 0.04 6.05 -6.09 0 0 -6.05zm-8.05 0l6.05 0 0 6.05 -6.05 0 0 -6.05zm-8.05 0l6.05 0 0 6.05 -6.05 0 0 -6.05zm-8.04 0l6.04 0 -0.1 6.05 -5.95 0 0.01 -6.05zm-8.05 0l6.04 0 -0.1 6.05 -5.94 0 0 -6.05zm-8.05 0l6.04 0 -0.1 6.05 -5.94 0 0 -6.05zm-8.05 0l6.04 0 0 6.05 -6.04 0 0 -6.05zm-8.05 0l6.05 0 0 6.05 -0.41 0 -5.64 0 0 -6.05zm48.5 -4.01l-6.04 0 -46.48 -0.01 0 46.28 99 0 0 -46.28 -46.48 0.01z"/>
   <polygon class="fil1" points="23.14,87.53 67.7,87.53 67.71,81.49 23.04,81.49 "/>
   <path class="fil0" d="M47.99 39.23l4.02 0c0,-3.91 0.6,-3.82 4.43,-3.82 4.48,0 9.62,0.85 12.28,-4.22 0.98,-1.88 1.49,-4.32 0.57,-6.82 -0.71,-1.93 -2.02,-3.53 -3.79,-4.46 -5.28,-2.77 -12.99,1.25 -13.47,-3.03 -0.25,-2.21 -0.02,-6.05 -0.02,-8.43l-4.02 0c0,2.75 0.01,5.5 -0.01,8.25 -0.02,2.76 1.18,4.32 2.85,5.4 3.55,2.29 11.53,-1.01 13.95,2.56 0.5,0.73 1.06,1.82 0.85,3.02 -1.19,6.96 -11.45,1.31 -15.58,5.16 -1.98,1.84 -2.06,2.75 -2.06,6.39z"/>
   <polygon class="fil2" points="78.58,65.4 72.33,65.4 72.34,71.43 86.22,71.43 86.22,57.35 78.57,57.35 "/>
   <polygon class="fil3" points="4.62,79.48 17.41,79.48 17.4,73.44 4.52,73.44 "/>
   <polygon class="fil3" points="65.72,79.48 76.97,79.48 76.96,73.44 65.69,73.44 "/>
   <polygon class="fil3" points="85.01,55.34 95.46,55.34 95.48,49.29 85.01,49.29 "/>
   <polygon class="fil3" points="4.52,71.43 14.69,71.43 14.59,65.39 4.62,65.39 "/>
   <polygon class="fil3" points="4.52,63.39 11.77,63.39 11.77,57.34 11.57,57.34 4.32,57.34 "/>
   <polygon class="fil3" points="4.52,87.53 11.77,87.53 11.87,81.49 4.52,81.49 "/>
   <polygon class="fil3" points="32.29,63.39 39.56,63.39 39.54,57.34 32.24,57.34 "/>
   <polygon class="fil3" points="41.54,63.39 48.8,63.39 48.8,57.34 41.52,57.34 "/>
   <polygon class="fil3" points="37.93,79.48 45.18,79.48 45.2,73.44 37.92,73.44 "/>
   <polygon class="fil3" points="44.37,71.43 51.61,71.43 51.63,65.39 44.36,65.39 "/>
   <polygon class="fil3" points="88.23,79.48 95.48,79.48 95.49,73.44 88.23,73.44 "/>
   <polygon class="fil3" points="53.62,71.43 60.87,71.43 60.88,65.39 53.62,65.39 "/>
   <polygon class="fil3" points="69.31,63.39 76.57,63.39 76.57,57.34 69.32,57.34 "/>
   <polygon class="fil3" points="50.8,63.39 58.06,63.39 58.05,57.34 50.81,57.34 "/>
   <polygon class="fil3" points="62.88,71.43 70.13,71.43 70.13,65.39 62.87,65.39 "/>
   <polygon class="fil3" points="19.41,79.48 26.66,79.48 26.66,73.44 19.41,73.44 "/>
   <polygon class="fil3" points="56.44,79.48 63.69,79.48 63.68,73.44 56.43,73.44 "/>
   <polygon class="fil3" points="28.67,79.48 35.92,79.48 35.91,73.44 28.67,73.44 "/>
   <polygon class="fil3" points="60.06,63.39 67.3,63.39 67.31,57.34 60.06,57.34 "/>
   <polygon class="fil3" points="88.23,63.39 95.48,63.39 95.48,57.34 88.23,57.34 "/>
   <polygon class="fil3" points="13.78,87.53 21.03,87.53 21.02,81.49 13.78,81.49 "/>
   <polygon class="fil3" points="47.21,79.48 54.43,79.48 54.43,73.44 47.18,73.44 "/>
   <polygon class="fil3" points="88.24,71.43 95.48,71.43 95.46,65.39 88.23,65.39 "/>
   <polygon class="fil4" points="88.22,87.53 95.47,87.53 95.48,81.49 88.23,81.49 "/>
   <polygon class="fil4" points="69.72,87.53 76.96,87.53 76.96,81.49 69.72,81.49 "/>
   <polygon class="fil4" points="78.98,79.48 86.22,79.48 86.22,73.44 78.98,73.44 "/>
   <polygon class="fil1" points="23.04,63.38 30.28,63.38 30.28,57.35 23.04,57.35 "/>
   <polygon class="fil1" points="25.86,71.43 33.1,71.43 33.09,65.4 25.85,65.4 "/>
   <polygon class="fil1" points="35.11,71.43 42.35,71.43 42.35,65.4 35.11,65.4 "/>
   <polygon class="fil3" points="13.78,63.39 20.97,63.39 21.03,57.34 13.78,57.34 "/>
   <polygon class="fil4" points="78.98,87.53 86.22,87.53 86.21,81.49 78.98,81.49 "/>
   <polygon class="fil1" points="16.6,71.43 23.64,71.43 23.84,65.4 16.6,65.4 "/>
   <polygon class="fil3" points="60.86,55.34 66.95,55.34 66.91,49.29 60.86,49.29 "/>
   <polygon class="fil3" points="4.52,55.34 10.16,55.34 10.57,55.34 10.57,49.29 4.52,49.29 "/>
   <polygon class="fil3" points="52.81,55.34 58.86,55.34 58.86,49.29 52.81,49.29 "/>
   <polygon class="fil3" points="44.76,55.34 50.81,55.34 50.81,49.29 44.76,49.29 "/>
   <polygon class="fil3" points="76.96,55.34 83,55.34 83,49.29 76.96,49.29 "/>
   <polygon class="fil3" points="12.57,55.34 18.61,55.34 18.61,49.29 12.57,49.29 "/>
   <polygon class="fil3" points="46.98,45.28 53.02,45.28 53.02,39.23 52.01,39.23 47.99,39.23 46.98,39.24 "/>
   <polygon class="fil3" points="68.91,55.34 74.9,55.34 74.96,49.29 68.94,49.29 "/>
   <polygon class="fil3" points="20.62,55.34 26.56,55.34 26.66,49.29 20.62,49.29 "/>
   <polygon class="fil3" points="28.67,55.34 34.61,55.34 34.71,49.29 28.67,49.29 "/>
   <polygon class="fil3" points="36.71,55.34 42.66,55.34 42.76,49.29 36.72,49.29 "/>
  </g>
 </g>
</svg>
